<svg xmlns="http://www.w3.org/2000/svg" xmlns:xlink="http://www.w3.org/1999/xlink" width="95.782" height="141.632" viewBox="0 0 95.782 141.632">
  <defs>
    <filter id="_1" x="29.071" y="16.711" width="39" height="75" filterUnits="userSpaceOnUse">
      <feOffset dy="3" input="SourceAlpha"/>
      <feGaussianBlur stdDeviation="3" result="blur"/>
      <feFlood flood-opacity="0.161"/>
      <feComposite operator="in" in2="blur"/>
      <feComposite in="SourceGraphic"/>
    </filter>
    <filter id="_1-2" x="29.071" y="16.711" width="39" height="75" filterUnits="userSpaceOnUse">
      <feOffset dy="3" input="SourceAlpha"/>
      <feGaussianBlur stdDeviation="3" result="blur-2"/>
      <feFlood flood-opacity="0.161" result="color"/>
      <feComposite operator="out" in="SourceGraphic" in2="blur-2"/>
      <feComposite operator="in" in="color"/>
      <feComposite operator="in" in2="SourceGraphic"/>
    </filter>
  </defs>
  <g id="idea1" transform="translate(-108.76 -76.61)">
    <path id="Path_89" data-name="Path 89" d="M175.741,179.033a39.07,39.07,0,0,1,11.8-18.043,47.4,47.4,0,0,0,17-36.434,47.909,47.909,0,0,0-50.313-47.884c-24.636,1.041-44.762,21.86-45.456,46.5a47.535,47.535,0,0,0,17,37.822,37.23,37.23,0,0,1,12.144,18.043Z" transform="translate(0 0)" fill="#ffd15c"/>
    <g id="Group_13" data-name="Group 13" transform="translate(137.92 178.686)">
      <path id="Path_91" data-name="Path 91" d="M222.933,489.6a11.583,11.583,0,0,0,21.513,0Z" transform="translate(-214.952 -457.33)" fill="#002054"/>
      <path id="Path_92" data-name="Path 92" d="M229.976,423.017h-25.33a6.22,6.22,0,0,1-6.246-6.246V390.4h37.822v26.371A6.22,6.22,0,0,1,229.976,423.017Z" transform="translate(-198.4 -390.4)" fill="#002054"/>
    </g>
    <g id="Group_14" data-name="Group 14" transform="translate(134.103 184.238)">
      <path id="Path_93" data-name="Path 93" d="M227.958,415.1H190.484a3.851,3.851,0,0,1-3.817-3.817h0a3.851,3.851,0,0,1,3.817-3.817h37.475a3.851,3.851,0,0,1,3.817,3.817h0A3.851,3.851,0,0,1,227.958,415.1Z" transform="translate(-186.667 -407.467)" fill="#2a4c6a"/>
      <path id="Path_94" data-name="Path 94" d="M227.958,452.434H190.484a3.851,3.851,0,0,1-3.817-3.817h0a3.851,3.851,0,0,1,3.817-3.817h37.475a3.851,3.851,0,0,1,3.817,3.817h0A3.851,3.851,0,0,1,227.958,452.434Z" transform="translate(-186.667 -432.656)" fill="#2a4c6a"/>
    </g>
    <g data-type="innerShadowGroup">
      <g transform="matrix(1, 0, 0, 1, 108.76, 76.61)" filter="url(#_1)">
        <text id="_1-3" data-name="1" transform="translate(38.07 68.71)" fill="#fff" font-size="50" font-family="LilitaOne, Lilita One"><tspan x="0" y="0">1</tspan></text>
      </g>
      <g transform="matrix(1, 0, 0, 1, 108.76, 76.61)" filter="url(#_1-2)">
        <text id="_1-4" data-name="1" transform="translate(38.07 68.71)" fill="#fff" font-size="50" font-family="LilitaOne, Lilita One"><tspan x="0" y="0">1</tspan></text>
      </g>
    </g>
  </g>
</svg>
